<?xml version="1.0" standalone="no"?>
<!DOCTYPE svg PUBLIC "-//W3C//DTD SVG 20010904//EN"
 "http://www.w3.org/TR/2001/REC-SVG-20010904/DTD/svg10.dtd">
<svg version="1.0" xmlns="http://www.w3.org/2000/svg"
 width="396.000000pt" height="396.000000pt" viewBox="0 0 396.000000 396.000000"
 preserveAspectRatio="xMidYMid meet">
<metadata>
Created by potrace 1.11, written by Peter Selinger 2001-2013
</metadata>
<g transform="translate(0.000000,396.000000) scale(0.100000,-0.100000)"
fill="#000000" stroke="none">
<path d="M0 1980 l0 -1980 1980 0 1980 0 0 1980 0 1980 -1980 0 -1980 0 0
-1980z m2805 763 c194 -42 315 -159 354 -342 6 -30 10 -56 8 -57 -5 -5 -279
-24 -352 -24 l-60 0 -18 49 c-32 91 -117 139 -225 128 -65 -7 -97 -27 -120
-73 -15 -31 -15 -38 -2 -61 25 -44 61 -62 175 -89 310 -74 447 -128 535 -214
90 -88 132 -216 112 -345 -30 -191 -149 -327 -345 -392 -79 -26 -91 -27 -292
-28 -191 0 -217 2 -290 23 -148 43 -234 113 -304 247 -30 57 -67 197 -57 214
3 4 70 11 148 15 79 3 171 9 205 13 l62 6 6 -29 c31 -143 112 -213 245 -214
115 0 195 59 195 143 0 54 -31 99 -88 126 -23 11 -111 38 -195 60 -83 22 -182
52 -220 67 -182 73 -279 176 -303 324 -32 202 106 388 334 447 132 34 351 37
492 6z m-1095 -380 c-1 -694 -20 -807 -160 -936 -109 -101 -220 -138 -410
-138 -282 0 -430 73 -522 257 -36 74 -42 95 -46 167 l-4 83 173 23 c96 13 189
26 207 28 32 6 32 6 32 -38 0 -68 19 -120 56 -157 33 -33 38 -34 89 -30 40 3
62 11 80 28 52 49 55 82 55 607 l0 483 225 0 225 0 0 -377z"/>
</g>
</svg>
